Coordinates
version=1
nRows=11
nColumns=36
inDegrees=yes

Units are S.I. units (second, meters, Newtons, ...)
If the header above contains a line with 'inDegrees', this indicates whether rotational values are in degrees (yes) or radians (no).

endheader
time	pelvis_tilt	pelvis_list	pelvis_rotation	pelvis_tx	pelvis_ty	pelvis_tz	hip_flexion_r	hip_adduction_r	hip_rotation_r	knee_angle_r	knee_angle_r_beta	ankle_angle_r	subtalar_angle_r	mtp_angle_r	hip_flexion_l	hip_adduction_l	hip_rotation_l	knee_angle_l	knee_angle_l_beta	ankle_angle_l	subtalar_angle_l	mtp_angle_l	lumbar_extension	lumbar_bending	lumbar_rotation	arm_flex_r	arm_add_r	arm_rot_r	elbow_flex_r	pro_sup_r	arm_flex_l	arm_add_l	arm_rot_l	elbow_flex_l	pro_sup_l
      6.53333330	    -27.11973331	      1.02156627	     -8.82075039	      1.08445487	      0.65005829	      0.03719940	     89.34511067	    -15.16533422	     -3.60136169	     90.58401670	      1.58098934	     33.44253120	    -13.01783552	     -7.49999987	     92.88067422	    -19.11708208	      2.14244112	     91.56490533	      1.59810908	     29.62984305	    -16.82501254	     -7.49999987	    -10.66292752	      1.47113384	      7.46622867	     63.50209806	     -9.24602026	     68.62648223	    129.82416568	    103.75070905	     74.18225269	      2.32759081	     66.82991359	    120.60822486	    105.98569009
      6.55000000	    -27.26986775	      0.90008004	     -9.01170837	      1.08397748	      0.64948559	      0.03715801	     89.45711956	    -15.01769291	     -3.84299603	     90.64344124	      1.58202649	     33.44402609	    -13.07323688	     -7.49999987	     93.21448782	    -19.28865369	      2.39570190	     91.78780407	      1.60199939	     29.70116960	    -16.82520964	     -7.49999987	    -10.70122267	      1.62787161	      7.60455322	     63.49824876	     -9.69252271	     68.16480735	    130.18085386	    104.28255123	     74.53451836	      2.45633932	     66.28486540	    120.92174240	    106.14104088
      6.56666670	    -27.25382475	      0.86454724	     -9.21440786	      1.08401461	      0.64960537	      0.03724475	     89.40356838	    -14.89016257	     -4.02246502	     90.61691261	      1.58156348	     33.36225865	    -13.17806133	     -7.49999987	     93.21942549	    -19.45186207	      2.49475397	     91.87379629	      1.60350024	     29.75883769	    -16.85048935	     -7.49999987	    -10.82963996	      1.76992202	      7.79960082	     63.98286183	     -9.97458567	     68.04876683	    130.64687764	    105.06151107	     74.62368659	      2.65560545	     66.17649588	    121.43114326	    106.83281768
      6.58333330	    -27.16371552	      0.77793039	     -9.36268442	      1.08296353	      0.64546396	      0.03675605	     89.34317089	    -14.77581266	     -4.15348002	     90.72815237	      1.58350498	     33.39885617	    -13.26690024	     -7.49999987	     93.24846915	    -19.57596964	      2.65071490	     92.05677224	      1.60669377	     29.79137203	    -16.84718946	     -7.49999987	    -10.70319781	      1.97301725	      7.55993129	     64.76724994	     -9.76062040	     67.92904746	    130.79779193	    105.08515850	     75.40299523	      2.75643186	     65.80923928	    121.66492323	    106.80886798
      6.60000000	    -27.19408813	      0.76403962	     -9.36493744	      1.07801078	      0.64887080	      0.03968755	     89.32240316	    -14.79415995	     -4.29169165	     90.70730630	      1.58314115	     33.41397572	    -13.28024272	     -7.49999987	     93.28642976	    -19.55999476	      2.69138184	     92.01814836	      1.60601966	     29.79136353	    -16.84140923	     -7.49999987	    -10.67599594	      1.82275360	      7.72910804	     64.76464317	     -9.66085809	     67.90052867	    130.74843590	    105.08203304	     75.45214191	      2.62704620	     65.81616124	    121.66951155	    106.80803159
      6.61666670	    -27.23773328	      0.76534425	     -9.54621858	      1.08289292	      0.65200311	      0.03629556	     89.14063186	    -14.63034888	     -4.45244459	     90.37246362	      1.57729704	     33.40149831	    -13.28096081	     -7.49999987	     93.10516784	    -19.72551196	      2.62907967	     91.75106826	      1.60135823	     29.72739481	    -16.81864177	     -7.49999987	    -10.68222574	      1.95888798	      7.63564032	     64.34361220	     -9.59531672	     67.86943515	    130.60817824	    105.08228614	     75.21855128	      2.49015535	     66.17261295	    121.71698059	    106.82358843
      6.63333330	    -27.20498876	      0.58255186	     -9.66423386	      1.08306974	      0.65271708	      0.03629077	     88.71600020	    -14.46459630	     -4.79316557	     90.02468971	      1.57122724	     33.27422941	    -13.40791784	     -7.49999987	     92.84871049	    -19.79813378	      2.81140647	     91.51260417	      1.59719625	     29.59263001	    -16.88278234	     -7.49999987	    -10.34102415	      2.40733651	      7.32875511	     64.06922657	     -9.23824620	     65.99779066	    129.64959546	    105.49607685	     75.03250328	      2.06398425	     66.34888459	    122.11683579	    106.98750163
      6.65000000	    -27.10387124	      0.61015416	     -9.73221810	      1.08261609	      0.65965805	      0.03615039	     88.12204658	    -14.35399839	     -4.91264689	     89.41891905	      1.56065455	     33.10447875	    -13.31698821	     -7.49999987	     92.20535587	    -19.75371218	      2.66529265	     90.93914426	      1.58718749	     29.51401458	    -16.84447080	     -7.49999987	    -10.06189655	      2.41217961	      7.19878492	     63.66628829	     -9.27338589	     66.19309884	    129.56428804	    105.38355695	     74.70499630	      1.87888062	     66.33147401	    121.84576774	    106.82864814
      6.66666670	    -26.90461983	      0.63749538	     -9.76846228	      1.08286746	      0.66095715	      0.03606253	     87.47912926	    -14.28055631	     -4.97554626	     88.86135055	      1.55092314	     32.94225712	    -13.26923629	     -7.49999987	     91.45650280	    -19.66896024	      2.51206105	     90.36639786	      1.57719118	     29.32155615	    -16.93118096	     -7.49999987	     -9.68425392	      2.47459268	      6.98936306	     64.30950989	     -8.64624598	     65.71995168	    128.89402417	    105.35687598	     74.86471835	      1.88642174	     65.42241912	    121.45947876	    106.26295699
      6.68333330	    -26.93425050	      0.67606366	     -9.77657820	      1.08227912	      0.66759188	      0.03593286	     87.00273698	    -14.19345452	     -5.09498360	     88.15853690	      1.53865673	     32.80658542	    -13.10713439	     -7.49999987	     90.92547909	    -19.59695285	      2.33826684	     89.69513422	      1.56547542	     29.23792343	    -16.80322092	     -7.49999987	     -8.98376742	      2.42114748	      7.00745488	     64.51893244	     -8.58307526	     65.66122959	    128.99079847	    105.23293466	     74.94942457	      1.83805678	     65.21836601	    121.53688345	    106.11883404
      6.70000000	    -26.64304394	      0.82584542	     -9.74905458	      1.08264885	      0.67138562	      0.03533201	     86.20797274	    -14.20321637	     -5.05961173	     87.41151339	      1.52561871	     32.65332325	    -12.80440201	     -7.49999987	     89.88364055	    -19.44962660	      1.95260289	     88.89327862	      1.55148039	     28.92809746	    -16.99741407	     -7.49999987	     -8.71180319	      2.28068418	      6.67901266	     64.73323029	     -8.32354950	     65.93264678	    129.93110251	    104.07779210	     74.51968204	      1.51085551	     64.39341280	    121.99780502	    105.12162960
